<?xml version="1.0" encoding="utf-8"?>
<!-- Generator: Adobe Illustrator 15.1.0, SVG Export Plug-In . SVG Version: 6.00 Build 0)  -->
<!DOCTYPE svg PUBLIC "-//W3C//DTD SVG 1.1//EN" "http://www.w3.org/Graphics/SVG/1.1/DTD/svg11.dtd">
<svg version="1.1" id="Layer_1" xmlns="http://www.w3.org/2000/svg" xmlns:xlink="http://www.w3.org/1999/xlink" x="0px" y="0px"
	 width="27px" height="27px" viewBox="0 0 27 27" enable-background="new 0 0 27 27" xml:space="preserve">
<filter  x="-50%" width="200%" y="-50%" filterUnits="objectBoundingBox" height="200%" id="filter-1">
	<feOffset  dx="0" dy="2" in="SourceAlpha" result="shadowOffsetOuter1"></feOffset>
	<feGaussianBlur  in="shadowOffsetOuter1" result="shadowBlurOuter1" stdDeviation="2"></feGaussianBlur>
	
		<feColorMatrix  type="matrix" in="shadowBlurOuter1" result="shadowMatrixOuter1" values="0 0 0 0 0   0 0 0 0 0   0 0 0 0 0  0 0 0 0.05 0">
		</feColorMatrix>
	<feMerge>
		<feMergeNode  in="shadowMatrixOuter1"></feMergeNode>
		<feMergeNode  in="SourceGraphic"></feMergeNode>
	</feMerge>
</filter>
<title>ic_onCampus</title>
<desc>Created with Sketch.</desc>
<g id="OPt-2">
	<g id="prog2_pro3_Mobile-Portrait_opt2-Copy-2" transform="translate(-93.000000, -18.000000)">
		<g id="nav">
			<g id="Group-6" filter="url(#filter-1)">
				<g transform="translate(96.000000, 20.000000)">
					<path fill="#670000" d="M20,4v2h-5l-3.471,5H14v2h-1.54l3.71,8h-2.199l-0.931-2H4.38l-1.03,2H1.1l4.13-8H5
						c-0.45,0-0.83-0.3-0.96-0.7L0.87,2.84L1.82,2.5c0.52-0.16,1.09,0.13,1.26,0.65L5.72,11h4.38l3.47-5H10V4H20L20,4z M7.5,13
						l-2.08,4h6.689l-1.85-4H7.5z"/>
				</g>
			</g>
		</g>
	</g>
</g>
</svg>
